<svg width="48" height="48" viewBox="0 0 48 48" fill="none" xmlns="http://www.w3.org/2000/svg">
<path d="M42.5 24C42.5 27.659 41.415 31.2357 39.3822 34.278C37.3494 37.3204 34.4601 39.6915 31.0797 41.0918C27.6992 42.492 23.9795 42.8584 20.3908 42.1445C16.8022 41.4307 13.5058 39.6687 10.9185 37.0815C8.33126 34.4942 6.56931 31.1978 5.85548 27.6092C5.14165 24.0205 5.50802 20.3008 6.90824 16.9204C8.30846 13.5399 10.6796 10.6506 13.722 8.61781C16.7643 6.58501 20.3411 5.5 24 5.5H42.5V24Z" stroke="white" stroke-linecap="round" stroke-linejoin="round"/>
<path d="M29.625 22.172C29.625 20.6802 29.0324 19.2494 27.9775 18.1945C26.9226 17.1396 25.4918 16.547 24 16.547C22.5082 16.547 21.0774 17.1396 20.0225 18.1945C18.9676 19.2494 18.375 20.6802 18.375 22.172V25.828C18.375 27.3198 18.9676 28.7506 20.0225 29.8055C21.0774 30.8604 22.5082 31.453 24 31.453C25.4918 31.453 26.9226 30.8604 27.9775 29.8055C29.0324 28.7506 29.625 27.3198 29.625 25.828M29.625 31.433V5.5" stroke="white" stroke-linecap="round" stroke-linejoin="round"/>
</svg>
